# This file uses centimeters as units for non-parametric coordinates.

mtllib Missile.mtl
g default
v 1.250000 0.404509 -0.293893
v 1.250000 0.154508 -0.475528
v 1.250000 -0.154509 -0.475528
v 1.250000 -0.404509 -0.293893
v 1.250000 -0.500000 0.000000
v 1.250000 -0.404509 0.293893
v 1.250000 -0.154508 0.475528
v 1.250000 0.154509 0.475528
v 1.250000 0.404509 0.293893
v 1.250000 0.500000 0.000000
v -1.250000 0.404509 -0.293893
v -1.250000 0.154508 -0.475528
v -1.250000 -0.154509 -0.475528
v -1.250000 -0.404509 -0.293893
v -1.250000 -0.500000 0.000000
v -1.250000 -0.404509 0.293893
v -1.250000 -0.154508 0.475528
v -1.250000 0.154509 0.475528
v -1.250000 0.404509 0.293893
v -1.250000 0.500000 0.000000
v 1.250000 -0.000000 0.000000
v -1.250000 0.000000 0.000000
vt 0.626409 0.064409
vt 0.548284 0.007647
vt 0.451716 0.007647
vt 0.373591 0.064409
vt 0.343750 0.156250
vt 0.373591 0.248091
vt 0.451716 0.304853
vt 0.548284 0.304853
vt 0.626409 0.248091
vt 0.656250 0.156250
vt 0.375000 0.312500
vt 0.400000 0.312500
vt 0.425000 0.312500
vt 0.450000 0.312500
vt 0.475000 0.312500
vt 0.500000 0.312500
vt 0.525000 0.312500
vt 0.550000 0.312500
vt 0.575000 0.312500
vt 0.600000 0.312500
vt 0.625000 0.312500
vt 0.375000 0.688440
vt 0.400000 0.688440
vt 0.425000 0.688440
vt 0.450000 0.688440
vt 0.475000 0.688440
vt 0.500000 0.688440
vt 0.525000 0.688440
vt 0.550000 0.688440
vt 0.575000 0.688440
vt 0.600000 0.688440
vt 0.625000 0.688440
vt 0.626409 0.751909
vt 0.548284 0.695147
vt 0.451716 0.695147
vt 0.373591 0.751909
vt 0.343750 0.843750
vt 0.373591 0.935591
vt 0.451716 0.992353
vt 0.548284 0.992353
vt 0.626409 0.935591
vt 0.656250 0.843750
vt 0.500000 0.150000
vt 0.500000 0.837500
vn 0.000000 0.587785 -0.809017
vn 0.000000 0.587785 -0.809017
vn 0.000000 0.587785 -0.809017
vn 0.000000 0.587785 -0.809017
vn 0.000000 0.000000 -1.000000
vn -0.000000 -0.000000 -1.000000
vn -0.000000 -0.000000 -1.000000
vn -0.000000 -0.000000 -1.000000
vn -0.000000 -0.587785 -0.809017
vn -0.000000 -0.587785 -0.809017
vn -0.000000 -0.587785 -0.809017
vn -0.000000 -0.587785 -0.809017
vn -0.000000 -0.951057 -0.309017
vn -0.000000 -0.951057 -0.309017
vn -0.000000 -0.951057 -0.309017
vn -0.000000 -0.951057 -0.309017
vn -0.000000 -0.951057 0.309017
vn -0.000000 -0.951057 0.309017
vn -0.000000 -0.951057 0.309017
vn -0.000000 -0.951057 0.309017
vn -0.000000 -0.587785 0.809017
vn -0.000000 -0.587785 0.809017
vn -0.000000 -0.587785 0.809017
vn -0.000000 -0.587785 0.809017
vn 0.000000 0.000000 1.000000
vn 0.000000 0.000000 1.000000
vn 0.000000 0.000000 1.000000
vn 0.000000 0.000000 1.000000
vn 0.000000 0.587785 0.809017
vn 0.000000 0.587785 0.809017
vn 0.000000 0.587785 0.809017
vn 0.000000 0.587785 0.809017
vn 0.000000 0.951057 0.309017
vn 0.000000 0.951056 0.309017
vn 0.000000 0.951056 0.309017
vn 0.000000 0.951057 0.309017
vn 0.000000 0.951057 -0.309017
vn 0.000000 0.951057 -0.309017
vn 0.000000 0.951057 -0.309017
vn 0.000000 0.951057 -0.309017
vn 1.000000 -0.000000 -0.000000
vn 1.000000 -0.000000 -0.000000
vn 1.000000 -0.000000 -0.000000
vn 1.000000 -0.000000 0.000000
vn 1.000000 -0.000000 0.000000
vn 1.000000 -0.000000 -0.000000
vn 1.000000 -0.000000 -0.000000
vn 1.000000 -0.000000 0.000000
vn 1.000000 -0.000000 0.000000
vn 1.000000 -0.000000 0.000000
vn 1.000000 -0.000000 0.000000
vn -1.000000 0.000000 -0.000000
vn -1.000000 0.000000 -0.000000
vn -1.000000 0.000000 -0.000000
vn -1.000000 0.000000 0.000000
vn -1.000000 0.000000 -0.000000
vn -1.000000 0.000000 -0.000000
vn -1.000000 0.000000 -0.000000
vn -1.000000 0.000000 0.000000
vn -1.000000 0.000000 0.000000
vn -1.000000 0.000000 0.000000
vn -1.000000 0.000000 0.000000
s 1
g pCylinder1
usemtl initialShadingGroup
f 1/11/1 2/12/2 11/22/3
f 11/22/3 2/12/2 12/23/4
s 2
f 2/12/5 3/13/6 12/23/7
f 12/23/7 3/13/6 13/24/8
s 3
f 3/13/9 4/14/10 13/24/11
f 13/24/11 4/14/10 14/25/12
s 4
f 4/14/13 5/15/14 14/25/15
f 14/25/15 5/15/14 15/26/16
s 5
f 5/15/17 6/16/18 15/26/19
f 15/26/19 6/16/18 16/27/20
s 6
f 6/16/21 7/17/22 16/27/23
f 16/27/23 7/17/22 17/28/24
s 7
f 7/17/25 8/18/26 17/28/27
f 17/28/27 8/18/26 18/29/28
s 8
f 8/18/29 9/19/30 18/29/31
f 18/29/31 9/19/30 19/30/32
s 9
f 9/19/33 10/20/34 19/30/35
f 19/30/35 10/20/34 20/31/36
s 10
f 10/20/37 1/21/38 20/31/39
f 20/31/39 1/21/38 11/32/40
s 11
f 2/2/41 1/1/42 21/43/43
f 3/3/44 2/2/41 21/43/43
f 4/4/45 3/3/44 21/43/43
f 5/5/46 4/4/45 21/43/43
f 6/6/47 5/5/46 21/43/43
f 7/7/48 6/6/47 21/43/43
f 8/8/49 7/7/48 21/43/43
f 9/9/50 8/8/49 21/43/43
f 10/10/51 9/9/50 21/43/43
f 1/1/42 10/10/51 21/43/43
s 12
f 11/41/52 12/40/53 22/44/54
f 12/40/53 13/39/55 22/44/54
f 13/39/55 14/38/56 22/44/54
f 14/38/56 15/37/57 22/44/54
f 15/37/57 16/36/58 22/44/54
f 16/36/58 17/35/59 22/44/54
f 17/35/59 18/34/60 22/44/54
f 18/34/60 19/33/61 22/44/54
f 19/33/61 20/42/62 22/44/54
f 20/42/62 11/41/52 22/44/54
g default
v 1.250000 -0.404509 -0.293893
v 1.250000 -0.154508 -0.475528
v 1.250000 0.154509 -0.475528
v 1.250000 0.404509 -0.293893
v 1.250000 0.500000 0.000000
v 1.250000 0.404509 0.293893
v 1.250000 0.154508 0.475528
v 1.250000 -0.154509 0.475528
v 1.250000 -0.404509 0.293893
v 1.250000 -0.500000 0.000000
v 2.250000 0.000000 0.000000
vt 0.702254 0.103054
vt 0.577254 0.012236
vt 0.422746 0.012236
vt 0.297746 0.103054
vt 0.250000 0.250000
vt 0.297746 0.396946
vt 0.422746 0.487764
vt 0.577254 0.487764
vt 0.702254 0.396946
vt 0.750000 0.250000
vt 0.250000 0.500000
vt 0.300000 0.500000
vt 0.350000 0.500000
vt 0.400000 0.500000
vt 0.450000 0.500000
vt 0.500000 0.500000
vt 0.550000 0.500000
vt 0.600000 0.500000
vt 0.650000 0.500000
vt 0.700000 0.500000
vt 0.750000 0.500000
vt 0.500000 1.000000
vn -1.000000 -0.000000 0.000000
vn -1.000000 -0.000000 0.000000
vn -1.000000 -0.000000 -0.000000
vn -1.000000 -0.000000 0.000000
vn -1.000000 -0.000000 -0.000000
vn -1.000000 -0.000000 -0.000000
vn -1.000000 -0.000000 0.000000
vn -1.000000 -0.000000 0.000000
vn -1.000000 -0.000000 0.000000
vn -1.000000 -0.000000 0.000000
vn 0.429446 -0.530824 -0.730617
vn 0.429446 -0.530824 -0.730617
vn 0.429446 -0.530824 -0.730617
vn 0.429446 0.000000 -0.903093
vn 0.429446 0.000000 -0.903093
vn 0.429446 0.000000 -0.903093
vn 0.429446 0.530825 -0.730617
vn 0.429446 0.530825 -0.730617
vn 0.429446 0.530825 -0.730617
vn 0.429446 0.858892 -0.279071
vn 0.429446 0.858892 -0.279071
vn 0.429446 0.858892 -0.279071
vn 0.429446 0.858892 0.279071
vn 0.429446 0.858892 0.279071
vn 0.429446 0.858892 0.279071
vn 0.429446 0.530824 0.730617
vn 0.429446 0.530824 0.730617
vn 0.429446 0.530824 0.730617
vn 0.429446 -0.000000 0.903093
vn 0.429446 -0.000000 0.903093
vn 0.429446 -0.000000 0.903093
vn 0.429446 -0.530825 0.730617
vn 0.429446 -0.530825 0.730617
vn 0.429446 -0.530825 0.730617
vn 0.429446 -0.858892 0.279071
vn 0.429446 -0.858892 0.279071
vn 0.429446 -0.858892 0.279071
vn 0.429446 -0.858892 -0.279071
vn 0.429446 -0.858892 -0.279071
vn 0.429446 -0.858892 -0.279071
s 1
g pCone1
usemtl initialShadingGroup
f 23/45/63 32/54/64 24/46/65
f 32/54/64 31/53/66 24/46/65
f 31/53/66 30/52/67 24/46/65
f 30/52/67 29/51/68 24/46/65
f 29/51/68 28/50/69 24/46/65
f 28/50/69 27/49/70 24/46/65
f 27/49/70 26/48/71 24/46/65
f 26/48/71 25/47/72 24/46/65
s off
f 23/55/73 24/56/74 33/66/75
f 24/56/76 25/57/77 33/66/78
f 25/57/79 26/58/80 33/66/81
f 26/58/82 27/59/83 33/66/84
f 27/59/85 28/60/86 33/66/87
f 28/60/88 29/61/89 33/66/90
f 29/61/91 30/62/92 33/66/93
f 30/62/94 31/63/95 33/66/96
f 31/63/97 32/64/98 33/66/99
f 32/64/100 23/65/101 33/66/102
g default
v -0.807952 0.423822 -0.198174
v -1.127484 0.465217 -0.000000
v -0.807952 0.423822 0.198174
v 0.286729 0.465217 0.000000
v -1.037175 0.689109 0.000000
vt 0.500000 0.000000
vt 0.250000 0.250000
vt 0.500000 0.500000
vt 0.750000 0.250000
vt 0.250000 0.500000
vt 0.375000 0.500000
vt 0.500000 0.500000
vt 0.625000 0.500000
vt 0.750000 0.500000
vt 0.500000 1.000000
vn 0.037788 -0.999286 0.000000
vn 0.007212 -0.999974 0.000000
vn 0.007212 -0.999974 0.000000
vn -0.128476 -0.991713 0.000000
vn -0.497439 0.200647 -0.843976
vn -0.497439 0.200647 -0.843976
vn -0.497439 0.200647 -0.843976
vn -0.497439 0.200647 0.843976
vn -0.497439 0.200647 0.843976
vn -0.497439 0.200647 0.843976
vn 0.110668 0.654398 0.748008
vn 0.110668 0.654398 0.748008
vn 0.110668 0.654398 0.748008
vn 0.110668 0.654398 -0.748008
vn 0.110668 0.654398 -0.748008
vn 0.110668 0.654398 -0.748008
s 1
g pPyramid1
usemtl initialShadingGroup
f 37/70/103 36/69/104 34/67/105
f 34/67/105 36/69/104 35/68/106
s off
f 34/71/107 35/72/108 38/76/109
f 35/72/110 36/73/111 38/76/112
f 36/73/113 37/74/114 38/76/115
f 37/74/116 34/75/117 38/76/118
g default
v -0.807952 -0.412844 -0.221871
v -1.127484 -0.273949 -0.369160
v -0.807952 -0.087706 -0.448534
v 0.286729 -0.273948 -0.369160
v -1.037175 -0.401988 -0.552827
vt 0.500000 0.000000
vt 0.250000 0.250000
vt 0.500000 0.500000
vt 0.750000 0.250000
vt 0.250000 0.500000
vt 0.375000 0.500000
vt 0.500000 0.500000
vt 0.625000 0.500000
vt 0.750000 0.500000
vt 0.500000 1.000000
vn 0.037788 0.571473 0.819750
vn 0.007212 0.571867 0.820315
vn 0.007212 0.571867 0.820315
vn -0.128476 0.567142 0.813538
vn -0.497439 -0.807090 0.318056
vn -0.497439 -0.807090 0.318056
vn -0.497439 -0.807090 0.318056
vn -0.497439 0.577597 -0.647252
vn -0.497439 0.577597 -0.647252
vn -0.497439 0.577597 -0.647252
vn 0.110668 0.239379 -0.964598
vn 0.110668 0.239379 -0.964598
vn 0.110668 0.239379 -0.964598
vn 0.110668 -0.987856 -0.109054
vn 0.110668 -0.987856 -0.109054
vn 0.110668 -0.987856 -0.109054
s 1
g pasted__pPyramid1 group
usemtl initialShadingGroup
f 42/80/119 41/79/120 39/77/121
f 39/77/121 41/79/120 40/78/122
s off
f 39/81/123 40/82/124 43/86/125
f 40/82/126 41/83/127 43/86/128
f 41/83/129 42/84/130 43/86/131
f 42/84/132 39/85/133 43/86/134
g default
v -0.807574 -0.087706 0.448651
v -1.127107 -0.273948 0.369275
v -0.807574 -0.412843 0.221984
v 0.287107 -0.273948 0.369275
v -1.036798 -0.401989 0.552941
vt 0.500000 0.000000
vt 0.250000 0.250000
vt 0.500000 0.500000
vt 0.750000 0.250000
vt 0.250000 0.500000
vt 0.375000 0.500000
vt 0.500000 0.500000
vt 0.625000 0.500000
vt 0.750000 0.500000
vt 0.500000 1.000000
vn 0.037788 0.571480 -0.819746
vn 0.007212 0.571873 -0.820310
vn 0.007212 0.571873 -0.820310
vn -0.128476 0.567149 -0.813533
vn -0.497439 0.577592 0.647257
vn -0.497439 0.577592 0.647257
vn -0.497439 0.577592 0.647257
vn -0.497439 -0.807088 -0.318063
vn -0.497439 -0.807088 -0.318063
vn -0.497439 -0.807088 -0.318063
vn 0.110668 -0.987857 0.109046
vn 0.110668 -0.987857 0.109047
vn 0.110668 -0.987857 0.109046
vn 0.110668 0.239372 0.964600
vn 0.110668 0.239372 0.964600
vn 0.110668 0.239372 0.964600
s 1
g pasted__pasted__pPyramid1 pasted__group group1
usemtl initialShadingGroup
f 47/90/135 46/89/136 44/87/137
f 44/87/137 46/89/136 45/88/138
s off
f 44/91/139 45/92/140 48/96/141
f 45/92/142 46/93/143 48/96/144
f 46/93/145 47/94/146 48/96/147
f 47/94/148 44/95/149 48/96/150
