# This file uses centimeters as units for non-parametric coordinates.

mtllib TrackOval.mtl
g default
v -12.545612 0.230953 119.531265
v -12.724619 0.230953 -166.338531
v -13.256205 0.230953 -168.322495
v -14.124215 0.230953 -170.183914
v -15.302274 0.230953 -171.866348
v -16.754591 0.230953 -173.318665
v -18.437035 0.230953 -174.496704
v -20.298486 0.230953 -175.364700
v -22.282386 0.230953 -175.896255
v -24.328455 0.230953 -176.075317
v -29.938419 0.230953 -175.896255
v -31.922320 0.230953 -175.364700
v -33.783768 0.230953 -174.496704
v -35.466210 0.230953 -173.318665
v -36.918528 0.230953 -171.866348
v -38.096585 0.230953 -170.183899
v -38.964592 0.230953 -168.322357
v -39.496180 0.230953 -166.338516
v -39.675186 0.230953 -164.292480
v -39.496174 0.230953 121.888565
v -38.964588 0.230953 123.949699
v -38.096580 0.230953 125.811264
v -36.918518 0.230953 127.493698
v -35.466204 0.230953 128.946014
v -33.783760 0.230953 130.124054
v -31.922311 0.230953 130.992050
v -29.938411 0.230953 131.523590
v -24.328447 0.230953 131.702667
v -22.282379 0.230953 131.523590
v -20.298480 0.230953 130.992050
v -18.437031 0.230953 130.124054
v -16.754589 0.230953 128.945999
v -15.302274 0.230953 127.493690
v -14.124216 0.230953 125.811249
v -13.256209 0.230953 123.949829
v -12.724626 0.230953 121.965866
v 14.887459 0.230953 111.737732
v 12.518455 0.230953 -164.335800
v 12.619606 0.230953 -174.202927
v 9.712135 0.230953 -184.621399
v 5.766138 0.230953 -194.038071
v 0.901493 0.230953 -202.166931
v -4.733984 0.230953 -208.760406
v -10.969065 0.230953 -213.618729
v -17.614293 0.230953 -216.594116
v -24.467760 0.230953 -217.596039
v -34.702623 0.230953 -216.594116
v -41.347851 0.230953 -213.618713
v -47.582924 0.230953 -208.760391
v -53.218405 0.230953 -202.166916
v -58.083046 0.230953 -194.038055
v -62.029042 0.230953 -184.621399
v -64.936493 0.230953 -174.202927
v -66.717072 0.230953 -163.098923
v -65.488564 0.230953 -153.403915
v -66.476300 0.230953 122.645660
v -64.703400 0.230953 131.779556
v -61.808506 0.230953 140.790802
v -57.879540 0.230953 148.935486
v -53.035918 0.230953 155.966003
v -47.424790 0.230953 161.668945
v -41.216660 0.230953 165.871063
v -34.600149 0.230953 168.444336
v -24.409515 0.230953 169.310867
v -17.585666 0.230953 168.444336
v -10.969155 0.230953 165.871048
v -4.761025 0.230953 161.668945
v 0.850097 0.230953 155.965973
v 5.693712 0.230953 148.935471
v 9.622665 0.230953 140.790573
v 12.517559 0.230953 131.779526
v 14.290439 0.230953 122.175461
vt 0.000000 0.250000
vt 0.027778 0.250000
vt 0.055556 0.250000
vt 0.083333 0.250000
vt 0.111111 0.250000
vt 0.138889 0.250000
vt 0.166667 0.250000
vt 0.194444 0.250000
vt 0.222222 0.250000
vt 0.250000 0.250000
vt 0.277778 0.250000
vt 0.305556 0.250000
vt 0.333333 0.250000
vt 0.361111 0.250000
vt 0.388889 0.250000
vt 0.416667 0.250000
vt 0.444445 0.250000
vt 0.472222 0.250000
vt 0.500000 0.250000
vt 0.527778 0.250000
vt 0.555556 0.250000
vt 0.583333 0.250000
vt 0.611111 0.250000
vt 0.638889 0.250000
vt 0.666667 0.250000
vt 0.694445 0.250000
vt 0.722222 0.250000
vt 0.750000 0.250000
vt 0.777778 0.250000
vt 0.805556 0.250000
vt 0.833334 0.250000
vt 0.861111 0.250000
vt 0.888889 0.250000
vt 0.916667 0.250000
vt 0.944445 0.250000
vt 0.972223 0.250000
vt 1.000000 0.250000
vt 0.000000 0.000000
vt 0.027778 0.000000
vt 0.055556 0.000000
vt 0.083333 0.000000
vt 0.111111 0.000000
vt 0.138889 0.000000
vt 0.166667 0.000000
vt 0.194444 0.000000
vt 0.222222 0.000000
vt 0.250000 0.000000
vt 0.277778 0.000000
vt 0.305556 0.000000
vt 0.333333 0.000000
vt 0.361111 0.000000
vt 0.388889 0.000000
vt 0.416667 0.000000
vt 0.444445 0.000000
vt 0.472222 0.000000
vt 0.500000 0.000000
vt 0.527778 0.000000
vt 0.555556 0.000000
vt 0.583333 0.000000
vt 0.611111 0.000000
vt 0.638889 0.000000
vt 0.666667 0.000000
vt 0.694445 0.000000
vt 0.722222 0.000000
vt 0.750000 0.000000
vt 0.777778 0.000000
vt 0.805556 0.000000
vt 0.833334 0.000000
vt 0.861111 0.000000
vt 0.888889 0.000000
vt 0.916667 0.000000
vt 0.944445 0.000000
vt 0.972223 0.000000
vt 1.000000 0.000000
vn 0.000000 -1.000000 0.000000
vn 0.000000 -1.000000 0.000000
vn 0.000000 -1.000000 0.000000
vn 0.000000 -1.000000 -0.000000
vn 0.000000 -1.000000 0.000000
vn 0.000000 -1.000000 0.000000
vn 0.000000 -1.000000 -0.000000
vn 0.000000 -1.000000 0.000000
vn 0.000000 -1.000000 -0.000000
vn 0.000000 -1.000000 -0.000000
vn 0.000000 -1.000000 -0.000000
vn 0.000000 -1.000000 -0.000000
vn 0.000000 -1.000000 0.000000
vn 0.000000 -1.000000 -0.000000
vn 0.000000 -1.000000 -0.000000
vn 0.000000 -1.000000 0.000000
vn 0.000000 -1.000000 -0.000000
vn 0.000000 -1.000000 0.000000
vn 0.000000 -1.000000 -0.000000
vn 0.000000 -1.000000 -0.000000
vn 0.000000 -1.000000 -0.000000
vn 0.000000 -1.000000 -0.000000
vn 0.000000 -1.000000 -0.000000
vn 0.000000 -1.000000 0.000000
vn 0.000000 -1.000000 0.000000
vn 0.000000 -1.000000 0.000000
vn 0.000000 -1.000000 0.000000
vn 0.000000 -1.000000 0.000000
vn 0.000000 -1.000000 0.000000
vn 0.000000 -1.000000 0.000000
vn 0.000000 -1.000000 0.000000
vn 0.000000 -1.000000 -0.000000
vn 0.000000 -1.000000 0.000000
vn 0.000000 -1.000000 -0.000000
vn 0.000000 -1.000000 -0.000000
vn 0.000000 -1.000000 0.000000
vn 0.000000 -1.000000 0.000000
vn 0.000000 -1.000000 0.000000
vn 0.000000 -1.000000 0.000000
vn 0.000000 -1.000000 0.000000
vn 0.000000 -1.000000 0.000000
vn 0.000000 -1.000000 -0.000000
vn 0.000000 -1.000000 0.000000
vn 0.000000 -1.000000 -0.000000
vn 0.000000 -1.000000 -0.000000
vn 0.000000 -1.000000 0.000000
vn 0.000000 -1.000000 -0.000000
vn 0.000000 -1.000000 0.000000
vn 0.000000 -1.000000 -0.000000
vn 0.000000 -1.000000 0.000000
vn 0.000000 -1.000000 -0.000000
vn 0.000000 -1.000000 0.000000
vn 0.000000 -1.000000 0.000000
vn 0.000000 -1.000000 -0.000000
vn 0.000000 -1.000000 0.000000
vn 0.000000 -1.000000 -0.000000
vn 0.000000 -1.000000 0.000000
vn 0.000000 -1.000000 -0.000000
vn 0.000000 -1.000000 0.000000
vn 0.000000 -1.000000 0.000000
vn 0.000000 -1.000000 -0.000000
vn 0.000000 -1.000000 0.000000
vn 0.000000 -1.000000 -0.000000
vn 0.000000 -1.000000 -0.000000
vn 0.000000 -1.000000 -0.000000
vn 0.000000 -1.000000 -0.000000
vn 0.000000 -1.000000 0.000000
vn 0.000000 -1.000000 0.000000
vn 0.000000 -1.000000 0.000000
vn 0.000000 -1.000000 0.000000
vn 0.000000 -1.000000 0.000000
vn 0.000000 -1.000000 -0.000000
s 1
g pPipe1
usemtl initialShadingGroup
f 38/2/1 37/1/2 2/39/3
f 2/39/3 37/1/2 1/38/4
f 39/3/5 38/2/1 3/40/6
f 3/40/6 38/2/1 2/39/3
f 40/4/7 39/3/5 4/41/8
f 4/41/8 39/3/5 3/40/6
f 41/5/9 40/4/7 5/42/10
f 5/42/10 40/4/7 4/41/8
f 42/6/11 41/5/9 6/43/12
f 6/43/12 41/5/9 5/42/10
f 43/7/13 42/6/11 7/44/14
f 7/44/14 42/6/11 6/43/12
f 44/8/15 43/7/13 8/45/16
f 8/45/16 43/7/13 7/44/14
f 45/9/17 44/8/15 9/46/18
f 9/46/18 44/8/15 8/45/16
f 46/10/19 45/9/17 10/47/20
f 10/47/20 45/9/17 9/46/18
f 46/10/19 10/47/20 47/11/21
f 47/11/21 10/47/20 11/48/22
f 47/11/21 11/48/22 48/12/23
f 48/12/23 11/48/22 12/49/24
f 48/12/23 12/49/24 49/13/25
f 49/13/25 12/49/24 13/50/26
f 49/13/25 13/50/26 50/14/27
f 50/14/27 13/50/26 14/51/28
f 50/14/27 14/51/28 51/15/29
f 51/15/29 14/51/28 15/52/30
f 51/15/29 15/52/30 52/16/31
f 52/16/31 15/52/30 16/53/32
f 52/16/31 16/53/32 53/17/33
f 53/17/33 16/53/32 17/54/34
f 54/18/35 53/17/33 18/55/36
f 18/55/36 53/17/33 17/54/34
f 55/19/37 54/18/35 19/56/38
f 19/56/38 54/18/35 18/55/36
f 56/20/39 55/19/37 20/57/40
f 20/57/40 55/19/37 19/56/38
f 56/20/39 20/57/40 57/21/41
f 57/21/41 20/57/40 21/58/42
f 58/22/43 57/21/41 22/59/44
f 22/59/44 57/21/41 21/58/42
f 59/23/45 58/22/43 23/60/46
f 23/60/46 58/22/43 22/59/44
f 60/24/47 59/23/45 24/61/48
f 24/61/48 59/23/45 23/60/46
f 61/25/49 60/24/47 25/62/50
f 25/62/50 60/24/47 24/61/48
f 62/26/51 61/25/49 26/63/52
f 26/63/52 61/25/49 25/62/50
f 63/27/53 62/26/51 27/64/54
f 27/64/54 62/26/51 26/63/52
f 64/28/55 63/27/53 28/65/56
f 28/65/56 63/27/53 27/64/54
f 64/28/55 28/65/56 65/29/57
f 65/29/57 28/65/56 29/66/58
f 65/29/57 29/66/58 66/30/59
f 66/30/59 29/66/58 30/67/60
f 66/30/59 30/67/60 67/31/61
f 67/31/61 30/67/60 31/68/62
f 67/31/61 31/68/62 68/32/63
f 68/32/63 31/68/62 32/69/64
f 68/32/63 32/69/64 69/33/65
f 69/33/65 32/69/64 33/70/66
f 69/33/65 33/70/66 70/34/67
f 70/34/67 33/70/66 34/71/68
f 70/34/67 34/71/68 71/35/69
f 71/35/69 34/71/68 35/72/70
f 72/36/71 71/35/69 36/73/72
f 36/73/72 71/35/69 35/72/70
f 37/37/2 72/36/71 1/74/4
f 1/74/4 72/36/71 36/73/72
